<?xml version="1.0" encoding="utf-8"?>
<!-- Generator: Adobe Illustrator 27.5.0, SVG Export Plug-In . SVG Version: 6.00 Build 0)  -->
<svg version="1.1" id="Layer_1" xmlns="http://www.w3.org/2000/svg" xmlns:xlink="http://www.w3.org/1999/xlink" x="0px" y="0px"
	 viewBox="0 0 4000 4000" style="enable-background:new 0 0 4000 4000;" xml:space="preserve">
<g>
	<rect style="fill:#81B1FF;" width="4000" height="4000"/>
	<g>
		<ellipse style="opacity:0.2;fill:#000072;" cx="1946.848" cy="3093.936" rx="1222.631" ry="380.14"/>
		<g>
			<g>
				<path style="fill:#9C9C9C;" d="M2667.247,2246.836c0,0,535.657,1062.452-677.624,1008.015
					c-347.036-15.567-550.98-138.981-633.712-322.217c-6.658-14.686-12.532-29.813-17.624-45.234
					c-87.334-265.185,58.5-573.694,155.087-656.182c0,0-226.071-279.431-86.502-667.686c16.743-46.604,44.744-99.132,83.222-151.807
					c154.157-211.433,475.835-424.727,907.464-260.583c203.698,77.446,328.923,214.713,394.865,367.45
					c45.576,105.496,62.857,218.385,58.109,324.028C2842.454,2021.842,2771.127,2180.307,2667.247,2246.836z"/>
			</g>
			<g style="opacity:0.2;">
				<path style="fill:#000072;" d="M2667.247,2246.836c0,0,535.657,1062.452-677.624,1008.015
					c-347.036-15.567-550.98-138.981-633.712-322.217c44.255,33.925,91.397,63.983,140.939,89.635
					c205.412,106.329,449.595,135.652,674.393,80.97c95.118-23.155,186.613-60.752,271.451-109.657
					c79.942-46.066,157.535-106.427,192.439-191.852c32.75-80.089,23.302-171.927-3.672-254.121
					c-28.824-88.003-80.945-172.713-157.075-223.219c-18.938-12.564-20.163-39.706-2.173-53.594
					c88.316-68.177,158.28-160.086,199.929-263.593c20.61-51.255,34.072-110.49,10.966-160.619
					c-28.198-61.437-144.464-108.336-147.597-178.683c-3.231-72.991,182.648-123.267,238.749-143.191
					c5.973-2.154,12.043-4.21,18.162-6.119c45.576,105.496,62.857,218.385,58.109,324.028
					C2842.454,2021.842,2771.127,2180.307,2667.247,2246.836z"/>
			</g>
			<g style="opacity:0.6;">
				<path style="fill:#FFFFFF;" d="M2850.531,1842.621c-0.049,0-0.098,0-0.098,0s-134.428-563.658-614.032-678.799
					c-303.369-72.844-582.261,106.329-746.307,247.904c154.157-211.433,475.835-424.727,907.464-260.583
					C2741.902,1282.095,2862.133,1583.947,2850.531,1842.621z"/>
			</g>
			<g>
				<path style="fill:#DBDBDB;" d="M1684.138,1564.204c-124.214-11.651-256.516,122.369-274.427,276.428
					c-16.385,140.846,27.606,270.242,118.887,365.936c-8.16,0-35.218,24.719-35.218,24.719
					c-96.617,82.49-242.434,391.057-155.065,656.227c50.89,154.444,178.86,272.49,394.648,330.115
					c7.512,1.033,12.666,0.932,20.853,2.285c255.639,42.3,586.823-140.682,597.405-451.478
					c10.573-310.797-148.211-439.197-148.211-439.197c-1.096-1.38-2.33-2.358-3.427-3.719c9.924-5.949,19.775-11.871,28.273-18.56
					c186.153-146.493,237.354-464.281,47.975-617.682c-222.742-180.414-438.63-7.137-438.63-7.137
					C1795.468,1604.85,1740.593,1569.495,1684.138,1564.204z"/>
			</g>
			<g>
				<path style="fill-rule:evenodd;clip-rule:evenodd;fill:#000072;" d="M1562.109,1861.146c0-43.825,19.842-79.35,44.322-79.35
					c24.48,0,44.322,35.526,44.322,79.35c0,43.825-19.843,79.35-44.322,79.35C1581.952,1940.496,1562.109,1904.97,1562.109,1861.146
					z"/>
			</g>
			<g>
				<path style="fill-rule:evenodd;clip-rule:evenodd;fill:#FFFFFF;" d="M1587.511,1889.518c0-11.036,6.252-19.983,13.966-19.983
					c7.711,0,13.966,8.946,13.966,19.983s-6.255,19.983-13.966,19.983C1593.764,1909.5,1587.511,1900.554,1587.511,1889.518z"/>
			</g>
			<g>
				<path style="fill-rule:evenodd;clip-rule:evenodd;fill:#000072;" d="M2002.665,1961.689c0-50.896,28.834-92.154,64.406-92.154
					c35.561,0,64.406,41.258,64.406,92.154c0,50.896-28.845,92.154-64.406,92.154
					C2031.5,2053.843,2002.665,2012.585,2002.665,1961.689z"/>
			</g>
			<g>
				<path style="fill-rule:evenodd;clip-rule:evenodd;fill:#FFFFFF;" d="M2037.795,1987.977c0-14.106,7.991-25.541,17.85-25.541
					c9.856,0,17.85,11.435,17.85,25.541c0,14.106-7.995,25.541-17.85,25.541C2045.786,2013.517,2037.795,2002.083,2037.795,1987.977
					z"/>
			</g>
			<g>
				<path style="fill:#000072;" d="M2076.987,3276.454c-28.613,0-57.988-0.679-88.232-2.034
					c-184.028-8.259-335.322-46.868-449.673-114.756c-108.628-64.492-182.437-154.041-219.375-266.16
					c-85.933-260.801,46.821-562.993,147.568-664.673c-18.862-26.882-58.271-89.424-88.076-179.719
					c-36.616-110.938-64.741-286.382,9.224-492.18c49.697-138.262,192.871-320.574,400.713-416.189
					c188.34-86.646,401.143-89.375,615.376-7.905c264.98,100.767,433.447,317.93,462.202,595.813
					c11.338,109.575-1.255,223.215-35.459,319.99c-31.724,89.758-80.757,161.733-139.146,204.8
					c17.09,36.868,59.688,135.632,87.451,259.341c46.348,206.499,27.495,382.649-54.531,509.404
					C2615.741,3191.081,2397.914,3276.445,2076.987,3276.454z M2096.625,1112.052c-100.713,0-197.983,21.423-291.123,64.27
					c-197.529,90.871-333.296,263.291-380.225,393.857c-69.941,194.595-43.716,360.332-9.399,465.102
					c37.368,114.097,92.197,182.959,92.749,183.64c6.646,8.252,5.532,20.31-2.524,27.192
					c-42.339,36.152-102.222,127.634-140.552,250.515c-30.034,96.279-55.918,241.16-8.648,384.619
					c71.235,216.216,290.332,338.643,633.608,354.045c29.775,1.338,58.779,2.004,86.885,2.007
					c306.514,0.01,513.052-79.316,614.692-236.299c185.151-285.952-40.054-740.818-42.349-745.378
					c-4.517-8.962-1.523-19.89,6.924-25.3c120.962-77.466,192.915-286.755,171.094-497.642
					c-27.178-262.629-186.519-467.922-437.163-563.237C2289.98,1131.183,2191.767,1112.052,2096.625,1112.052z"/>
			</g>
			<defs>
				
					<filter id="Adobe_OpacityMaskFilter" filterUnits="userSpaceOnUse" x="2017.824" y="1803.039" width="422.156" height="337.233">
					<feFlood  style="flood-color:white;flood-opacity:1" result="back"/>
					<feBlend  in="SourceGraphic" in2="back" mode="normal"/>
				</filter>
			</defs>
			<mask maskUnits="userSpaceOnUse" x="2017.824" y="1803.039" width="422.156" height="337.233" id="SVGID_1_">
				<g style="filter:url(#Adobe_OpacityMaskFilter);">
					<defs>
						
							<filter id="Adobe_OpacityMaskFilter_00000110470760396355445100000015915477105323845018_" filterUnits="userSpaceOnUse" x="2017.824" y="1803.039" width="422.156" height="337.233">
							<feFlood  style="flood-color:white;flood-opacity:1" result="back"/>
							<feBlend  in="SourceGraphic" in2="back" mode="normal"/>
						</filter>
					</defs>
					<mask maskUnits="userSpaceOnUse" x="2017.824" y="1803.039" width="422.156" height="337.233" id="SVGID_1_">
						<g style="filter:url(#Adobe_OpacityMaskFilter_00000110470760396355445100000015915477105323845018_);">
						</g>
					</mask>
					
						<linearGradient id="SVGID_00000013161799266114552200000005592130097790760071_" gradientUnits="userSpaceOnUse" x1="2460.9854" y1="1805.2213" x2="1940.6721" y2="2235.3193">
						<stop  offset="0" style="stop-color:#FFFFFF"/>
						<stop  offset="0.9944" style="stop-color:#000000"/>
					</linearGradient>
					<path style="mask:url(#SVGID_1_);fill:url(#SVGID_00000013161799266114552200000005592130097790760071_);" d="
						M2017.824,2086.99l402.617-283.951c14.094,33.49,20.42,69.045,19.441,104.181l-330.446,233.052
						C2076.01,2129.401,2044.641,2111.508,2017.824,2086.99z"/>
				</g>
			</mask>
			
				<linearGradient id="SVGID_00000127744857732820145990000002467422737911288992_" gradientUnits="userSpaceOnUse" x1="2460.9854" y1="1805.2213" x2="1940.6721" y2="2235.3193">
				<stop  offset="0" style="stop-color:#FFFFFF"/>
				<stop  offset="0.9944" style="stop-color:#FFFFFF"/>
			</linearGradient>
			<path style="fill:url(#SVGID_00000127744857732820145990000002467422737911288992_);" d="M2017.824,2086.99l402.617-283.951
				c14.094,33.49,20.42,69.045,19.441,104.181l-330.446,233.052C2076.01,2129.401,2044.641,2111.508,2017.824,2086.99z"/>
			<defs>
				
					<filter id="Adobe_OpacityMaskFilter_00000005233168778210989770000014053633246492257437_" filterUnits="userSpaceOnUse" x="1935.492" y="1664.747" width="458.387" height="381.132">
					<feFlood  style="flood-color:white;flood-opacity:1" result="back"/>
					<feBlend  in="SourceGraphic" in2="back" mode="normal"/>
				</filter>
			</defs>
			
				<mask maskUnits="userSpaceOnUse" x="1935.492" y="1664.747" width="458.387" height="381.132" id="SVGID_00000132784847106505199770000001119919547683790745_">
				<g style="filter:url(#Adobe_OpacityMaskFilter_00000005233168778210989770000014053633246492257437_);">
					<defs>
						
							<filter id="Adobe_OpacityMaskFilter_00000039131816394080791970000008810054093319379893_" filterUnits="userSpaceOnUse" x="1935.492" y="1664.747" width="458.387" height="381.132">
							<feFlood  style="flood-color:white;flood-opacity:1" result="back"/>
							<feBlend  in="SourceGraphic" in2="back" mode="normal"/>
						</filter>
					</defs>
					
						<mask maskUnits="userSpaceOnUse" x="1935.492" y="1664.747" width="458.387" height="381.132" id="SVGID_00000132784847106505199770000001119919547683790745_">
						<g style="filter:url(#Adobe_OpacityMaskFilter_00000039131816394080791970000008810054093319379893_);">
						</g>
					</mask>
					
						<linearGradient id="SVGID_00000074416771541573727510000017034259787611670669_" gradientUnits="userSpaceOnUse" x1="2353.1572" y1="1674.7751" x2="1832.8458" y2="2104.8716">
						<stop  offset="0" style="stop-color:#FFFFFF"/>
						<stop  offset="0.9944" style="stop-color:#000000"/>
					</linearGradient>
					
						<path style="mask:url(#SVGID_00000132784847106505199770000001119919547683790745_);fill:url(#SVGID_00000074416771541573727510000017034259787611670669_);" d="
						M1935.492,1906.037l342.128-241.291c45.315,17.282,86.181,47.706,116.258,90.352l-412.298,290.779
						C1951.504,2003.232,1936.562,1954.525,1935.492,1906.037z"/>
				</g>
			</mask>
			
				<linearGradient id="SVGID_00000135677460384661142690000003215035154639620003_" gradientUnits="userSpaceOnUse" x1="2353.1572" y1="1674.7751" x2="1832.8458" y2="2104.8716">
				<stop  offset="0" style="stop-color:#FFFFFF"/>
				<stop  offset="0.9944" style="stop-color:#FFFFFF"/>
			</linearGradient>
			<path style="fill:url(#SVGID_00000135677460384661142690000003215035154639620003_);" d="M1935.492,1906.037l342.128-241.291
				c45.315,17.282,86.181,47.706,116.258,90.352l-412.298,290.779C1951.504,2003.232,1936.562,1954.525,1935.492,1906.037z"/>
			<g>
				<path style="fill:#000072;" d="M2192.06,2179.958c-149.897,0-271.846-121.953-271.846-271.851
					c0-149.897,121.948-271.848,271.846-271.848s271.851,121.951,271.851,271.848
					C2463.91,2058.005,2341.957,2179.958,2192.06,2179.958z M2192.06,1675.424c-128.301,0-232.686,104.38-232.686,232.683
					c0,128.303,104.385,232.686,232.686,232.686c128.306,0,232.69-104.382,232.69-232.686
					C2424.75,1779.804,2320.365,1675.424,2192.06,1675.424z"/>
			</g>
			<g>
				<path style="fill:#000072;" d="M2192.05,2179.965c-19.707,0-39.458-2.148-58.696-6.382c-37.744-8.276-72.69-24.292-103.862-47.6
					c-69.448-51.836-109.282-131.248-109.282-217.861s39.834-166.025,109.297-217.874c31.147-23.293,66.099-39.312,103.862-47.59
					c19.224-4.231,38.975-6.38,58.682-6.38c54.297,0,106.777,15.999,151.768,46.267c75.195,50.715,120.073,135.036,120.073,225.576
					c0,90.539-44.878,174.861-120.054,225.564C2298.827,2163.967,2246.347,2179.965,2192.05,2179.965z M2192.05,1675.444
					c-16.885,0-33.799,1.838-50.278,5.464c-32.285,7.08-62.163,20.776-88.823,40.715c-59.478,44.395-93.579,112.366-93.579,186.499
					s34.102,142.104,93.564,186.487c26.68,19.951,56.558,33.647,88.823,40.723c16.494,3.63,33.408,5.469,50.293,5.469
					c46.479,0,91.401-13.691,129.912-39.597c64.341-43.398,102.769-115.581,102.769-193.081s-38.428-149.683-102.788-193.093
					C2283.451,1689.135,2238.53,1675.444,2192.05,1675.444z"/>
			</g>
			<defs>
				
					<filter id="Adobe_OpacityMaskFilter_00000114043378798613512440000012653007206294912391_" filterUnits="userSpaceOnUse" x="1409.89" y="1681.057" width="361.05" height="288.419">
					<feFlood  style="flood-color:white;flood-opacity:1" result="back"/>
					<feBlend  in="SourceGraphic" in2="back" mode="normal"/>
				</filter>
			</defs>
			
				<mask maskUnits="userSpaceOnUse" x="1409.89" y="1681.057" width="361.05" height="288.419" id="SVGID_00000076597460117583783180000003645395545777783732_">
				<g style="filter:url(#Adobe_OpacityMaskFilter_00000114043378798613512440000012653007206294912391_);">
					<defs>
						
							<filter id="Adobe_OpacityMaskFilter_00000181083135512190085240000014798828513456809407_" filterUnits="userSpaceOnUse" x="1409.89" y="1681.057" width="361.05" height="288.419">
							<feFlood  style="flood-color:white;flood-opacity:1" result="back"/>
							<feBlend  in="SourceGraphic" in2="back" mode="normal"/>
						</filter>
					</defs>
					
						<mask maskUnits="userSpaceOnUse" x="1409.89" y="1681.057" width="361.05" height="288.419" id="SVGID_00000076597460117583783180000003645395545777783732_">
						<g style="filter:url(#Adobe_OpacityMaskFilter_00000181083135512190085240000014798828513456809407_);">
						</g>
					</mask>
					
						<linearGradient id="SVGID_00000005253618792215524890000001296964846751196066_" gradientUnits="userSpaceOnUse" x1="1861.1461" y1="1636.5685" x2="1399.5768" y2="1995.3331">
						<stop  offset="0" style="stop-color:#FFFFFF"/>
						<stop  offset="0.9944" style="stop-color:#000000"/>
					</linearGradient>
					
						<path style="mask:url(#SVGID_00000076597460117583783180000003645395545777783732_);fill:url(#SVGID_00000005253618792215524890000001296964846751196066_);" d="
						M1409.89,1923.907l344.339-242.85c12.054,28.643,17.464,59.051,16.627,89.101l-282.615,199.318
						C1459.653,1960.179,1432.825,1944.876,1409.89,1923.907z"/>
				</g>
			</mask>
			
				<linearGradient id="SVGID_00000016788387210349768900000016283094006552103042_" gradientUnits="userSpaceOnUse" x1="1861.1461" y1="1636.5685" x2="1399.5768" y2="1995.3331">
				<stop  offset="0" style="stop-color:#FFFFFF"/>
				<stop  offset="0.9944" style="stop-color:#FFFFFF"/>
			</linearGradient>
			<path style="fill:url(#SVGID_00000016788387210349768900000016283094006552103042_);" d="M1409.89,1923.907l344.339-242.85
				c12.054,28.643,17.464,59.051,16.627,89.101l-282.615,199.318C1459.653,1960.179,1432.825,1944.876,1409.89,1923.907z"/>
			<defs>
				
					<filter id="Adobe_OpacityMaskFilter_00000088114213578936762420000015893857752648767645_" filterUnits="userSpaceOnUse" x="1339.476" y="1562.782" width="392.036" height="325.963">
					<feFlood  style="flood-color:white;flood-opacity:1" result="back"/>
					<feBlend  in="SourceGraphic" in2="back" mode="normal"/>
				</filter>
			</defs>
			
				<mask maskUnits="userSpaceOnUse" x="1339.476" y="1562.782" width="392.036" height="325.963" id="SVGID_00000097469152892114528210000001496044041996682666_">
				<g style="filter:url(#Adobe_OpacityMaskFilter_00000088114213578936762420000015893857752648767645_);">
					<defs>
						
							<filter id="Adobe_OpacityMaskFilter_00000021083446673946909590000011054343310794874781_" filterUnits="userSpaceOnUse" x="1339.476" y="1562.782" width="392.036" height="325.963">
							<feFlood  style="flood-color:white;flood-opacity:1" result="back"/>
							<feBlend  in="SourceGraphic" in2="back" mode="normal"/>
						</filter>
					</defs>
					
						<mask maskUnits="userSpaceOnUse" x="1339.476" y="1562.782" width="392.036" height="325.963" id="SVGID_00000097469152892114528210000001496044041996682666_">
						<g style="filter:url(#Adobe_OpacityMaskFilter_00000021083446673946909590000011054343310794874781_);">
						</g>
					</mask>
					
						<linearGradient id="SVGID_00000026874524043643583000000010036826526884116868_" gradientUnits="userSpaceOnUse" x1="1771.4642" y1="1521.1884" x2="1309.8953" y2="1879.9526">
						<stop  offset="0" style="stop-color:#FFFFFF"/>
						<stop  offset="0.9944" style="stop-color:#000000"/>
					</linearGradient>
					
						<path style="mask:url(#SVGID_00000097469152892114528210000001496044041996682666_);fill:url(#SVGID_00000026874524043643583000000010036826526884116868_);" d="
						M1339.476,1769.147l292.606-206.365c38.756,14.781,73.707,40.801,99.43,77.274l-352.619,248.689
						C1353.17,1852.272,1340.39,1810.616,1339.476,1769.147z"/>
				</g>
			</mask>
			
				<linearGradient id="SVGID_00000014601428585262421830000014378636384678247326_" gradientUnits="userSpaceOnUse" x1="1771.4642" y1="1521.1884" x2="1309.8953" y2="1879.9526">
				<stop  offset="0" style="stop-color:#FFFFFF"/>
				<stop  offset="0.9944" style="stop-color:#FFFFFF"/>
			</linearGradient>
			<path style="fill:url(#SVGID_00000014601428585262421830000014378636384678247326_);" d="M1339.476,1769.147l292.606-206.365
				c38.756,14.781,73.707,40.801,99.43,77.274l-352.619,248.689C1353.17,1852.272,1340.39,1810.616,1339.476,1769.147z"/>
			<g>
				<path style="fill:#000072;" d="M1555.209,2002.614c-130.4,0-236.484-106.087-236.484-236.484
					c0-130.398,106.084-236.484,236.484-236.484c130.396,0,236.479,106.086,236.479,236.484
					C1791.689,1896.527,1685.605,2002.614,1555.209,2002.614z M1555.209,1568.81c-108.804,0-197.324,88.516-197.324,197.319
					s88.521,197.319,197.324,197.319c108.804,0,197.319-88.516,197.319-197.319S1664.013,1568.81,1555.209,1568.81z"/>
			</g>
			<g>
				<g>
					<path style="fill:#FDCB38;" d="M1806.142,2206.546c-88.901-1.126-85.523-109.364-83.075-138.1
						c0.392-4.406,0.734-6.952,0.734-6.952l-37.891,15.714c-1.958-4.651-3.721-9.252-5.189-13.805
						c-3.035-9.252-5.14-18.309-6.315-27.023c-11.064-78.963,48.514-135.212,99.72-144.758c35.541-6.609,65.011,1.615,86.355,25.309
						c0.881,0.979,1.762,1.958,2.546,2.986c16.595,19.924,27.953,49.786,32.897,89.831c0.49,3.672,0.93,7.441,1.273,11.259
						C1901.114,2063.453,1908.702,2207.868,1806.142,2206.546z"/>
				</g>
				<g style="opacity:0.2;">
					<path style="fill:#000072;" d="M1895.925,2009.751c-8.273,3.475-16.547,6.902-24.82,10.378
						c-13.071,5.483-26.239,10.966-40.094,14.148c-12.63,2.888-25.652,3.818-38.282,6.952c-13.952,3.475-27.12,9.644-40.387,15.323
						c-9.693,4.21-19.435,8.175-29.275,11.896c0.392-4.406,0.734-6.952,0.734-6.952l-37.891,15.714
						c-1.958-4.651-3.721-9.252-5.189-13.805c-3.035-9.252-5.14-18.309-6.315-27.023c20.757-0.784,39.212-4.357,55.808-20.071
						c14.588-13.805,23.841-33.191,40.73-43.961c16.253-10.329,36.814-10.868,54.584-18.211
						c15.91-6.658,29.373-19.043,37.499-34.219C1879.623,1939.844,1890.98,1969.706,1895.925,2009.751z"/>
				</g>
				<g style="opacity:0.6;">
					<path style="fill:#FFFFFF;" d="M1860.482,1916.933c-39.751,1.42-79.453,8.175-111.42,30.939
						c-32.604,23.253-51.94,60.214-62.27,98.104c-1.713,6.217-3.769,12.728-6.07,17.428c-30.645-92.964,36.52-161.157,93.405-171.78
						C1809.667,1885.015,1839.138,1893.239,1860.482,1916.933z"/>
				</g>
				<g>
					<path style="fill:#000072;" d="M1807.538,2224.633c-0.542,0-1.079-0.005-1.626-0.012c-29.756-0.378-53.73-10.93-71.255-31.36
						c-25.688-29.941-30.537-74.558-30.522-104.05l-11.304,4.673c-9.131,3.792-19.653-0.503-23.53-9.629
						c-25.464-59.932-12.534-106.606,2.798-135.208c20.513-38.276,59.258-67.778,98.706-75.161
						c34.746-6.489,64.517-0.603,88.516,17.522c31.421,23.735,50.22,66.78,55.869,127.939c0,0.002,0,0.002,0,0.002
						c4.268,46.24,5.234,130.527-36.279,175.471C1860.634,2214.606,1836.625,2224.633,1807.538,2224.633z M1723.823,2043.456
						c3.94,0,7.847,1.292,11.064,3.787c5.122,3.97,7.729,10.381,6.821,16.799c-2.715,19.636-4.346,76.963,20.42,105.754
						c10.61,12.339,25.083,18.457,44.243,18.701c19.551,0.337,34.473-5.706,46.001-18.188
						c33.208-35.957,29.834-115.227,26.841-147.639v0.003c-4.609-49.905-19.019-85.327-41.67-102.434
						c-15.547-11.746-35.762-15.393-60.093-10.84c-29.106,5.447-57.964,27.71-73.511,56.716
						c-10.161,18.96-18.833,48.648-7.461,87.166l20.439-8.452C1719.145,2043.908,1721.489,2043.456,1723.823,2043.456z"/>
				</g>
				<g>
					<path style="fill:#FF4239;" d="M1723.825,2061.519l168.481-59.516c0,0-45.592,133.818-92.014,135.974
						c-46.422,2.166-42.973-88.291-42.973-88.291"/>
				</g>
				<g>
					<path style="fill:#000072;" d="M1798.681,2156.081c-12.881,0-24.512-4.805-33.765-13.982
						c-16.909-16.765-22.813-45.847-24.795-67.178l-10.283,3.633c-9.39,3.311-19.732-1.606-23.047-11.018
						c-3.325-9.407,1.606-19.724,11.016-23.049l33.081-11.684c0.278-0.108,0.557-0.205,0.84-0.298l134.561-47.534
						c6.533-2.307,13.799-0.674,18.716,4.19c4.922,4.866,6.631,12.117,4.399,18.669c-11.626,34.126-53.794,145.664-108.271,148.193
						C1800.307,2156.061,1799.491,2156.081,1798.681,2156.081z M1775.497,2062.424c0.874,18.23,4.766,44.041,14.868,54.036
						c2.676,2.642,5.288,3.65,9.087,3.474c15.942-0.74,41.914-41.931,61.807-87.805L1775.497,2062.424z"/>
				</g>
			</g>
			<g>
				<path style="fill:#000072;" d="M1948.603,1862.199c-5.605,0-11.167-2.392-15.039-7.034
					c-60.029-71.89-153.735-53.613-157.695-52.795c-10.566,2.178-20.933-4.612-23.135-15.181
					c-2.202-10.566,4.531-20.916,15.093-23.147c4.878-1.038,120.439-24.246,195.796,66.025c6.934,8.301,5.82,20.649-2.48,27.581
					C1957.48,1860.705,1953.027,1862.199,1948.603,1862.199z"/>
			</g>
			<g>
				<path style="fill:#000072;" d="M1503.376,2357.493c5.132,10.13,10.901,18.985,17.478,25.488
					c6.667,6.517,13.704,9.678,20.713,10.555c7.085,0.868,15.005-0.386,23.376-2.648c8.408-2.442,17.092-6.037,25.916-10.017
					l0.969-0.438c8.848-3.99,19.255-0.054,23.245,8.793c0.984,2.181,1.484,4.547,1.548,6.799c0.024,0.921,0.33,3.173,0.503,4.895
					c0.247,1.87,0.471,3.749,0.859,5.626c0.71,3.75,1.519,7.506,2.573,11.155c2.107,7.302,4.888,14.248,8.679,20.672
					c1.802,3.343,4.16,6.171,6.501,9.324c2.705,2.622,5.244,5.888,8.608,8.231c6.299,5.593,14.341,9.334,23.235,13.896
					c-9.294,2.701-19.771,3.894-30.073,1.333c-2.617-0.508-5.266-1.078-7.708-2.196c-2.493-1.002-5.095-1.961-7.529-3.217
					c-2.324-1.398-4.709-2.805-7.048-4.329c-2.354-1.508-4.287-3.438-6.465-5.203c-8.237-7.443-14.709-16.661-19.25-26.463
					c-2.249-4.918-4.241-9.934-5.588-15.133c-0.759-2.573-1.34-5.215-1.919-7.863c-0.549-2.812-0.891-5.111-1.206-8.77
					l25.762,15.154l-7.954,3.761c-2.698,1.184-5.559,2.164-8.333,3.242c-2.793,1.044-5.776,1.92-8.684,2.778
					c-2.957,0.803-6.082,1.387-9.106,2.061c-12.371,2.12-26.494,2.268-39.873-3.397c-6.616-2.765-12.656-7.039-17.4-12.113
					c-4.719-5.136-8.132-10.969-10.334-16.894C1500.642,2380.671,1500.212,2368.567,1503.376,2357.493z"/>
			</g>
			<g>
				<path style="fill:#000072;" d="M1522.129,2199.285c24.49,19.066,48.289,36.921,72.563,53.72
					c24.265,16.725,48.879,32.253,74.375,45.894c25.481,13.657,51.724,25.611,79.165,35.346
					c27.41,10.094,55.962,17.157,86.292,24.373c-30.11,7.878-62.258,8.492-93.354,3.143c-31.187-5.211-61.443-16.077-89.211-31.054
					c-27.832-14.937-53.188-34.038-75.415-55.975C1554.568,2252.619,1534.998,2227.814,1522.129,2199.285z"/>
			</g>
			<g>
				<path style="fill:#000072;" d="M2445.185,1937.719c-8.667,0-16.592-5.798-18.916-14.575
					c-2.769-10.454,3.462-21.172,13.916-23.941l195.977-51.907c5.522-1.609,40.347-10.664,71.548,6.887
					c19.473,10.955,32.656,29.37,39.185,54.736c2.695,10.474-3.608,21.148-14.082,23.845c-10.483,2.691-21.147-3.608-23.848-14.084
					c-3.818-14.837-10.508-24.768-20.454-30.364c-17.646-9.927-41.167-3.491-41.387-3.42c-0.22,0.066-0.439,0.127-0.659,0.185
					l-196.25,51.978C2448.534,1937.506,2446.845,1937.719,2445.185,1937.719z"/>
			</g>
			<g>
				<path style="fill:#9C9C9C;" d="M1808.542,1270.934l-6.168,4.846l-2.889,2.301l-100.16,78.669l-129.533,101.776l-19.141,15.029
					l-6.021,4.749l-2.105,1.664c-2.644-1.322-5.238-2.692-7.784-4.014c-0.049,0-0.049,0-0.098-0.049
					c-1.909-1.028-3.819-2.007-5.728-3.035c-183.333-97.908-233.071-216.573-214.126-254.708c1.077-2.105,2.301-3.965,3.77-5.581
					c2.35-2.546,5.287-4.259,8.714-5.238c2.742-0.832,5.777-1.175,9.106-1.126c8.763,0.098,19.288,3.035,30.449,7.686
					c37.009,15.225,81.215,48.563,92.719,57.521c-7.784-6.315-15.861-14.392-23.841-23.792
					c-53.36-62.27-104.958-180.396-68.291-204.677c1.615-1.126,3.427-2.056,5.434-2.741c0.636-0.196,1.273-0.391,1.909-0.587
					c42.492-11.21,128.015,81.313,165.563,125.078c3.378,3.966,6.364,7.49,8.91,10.525c-4.994-7.049-10.183-15.714-15.274-25.407
					c-23.988-45.625-45.87-113.818-37.009-140.939c1.762-5.287,4.651-9.008,8.91-10.721c0.44-0.147,0.832-0.343,1.273-0.441
					c33.729-10.966,77.054,77.348,154.793,149.702c21.393,19.924,41.954,38.135,60.605,54.045
					C1772.56,1244.303,1808.542,1270.934,1808.542,1270.934z"/>
			</g>
			<g style="opacity:0.6;">
				<path style="fill:#FFFFFF;" d="M1465.666,1280.431c-28.589,8.273-58.99-3.084-85.474-16.595
					c-20.903-10.672-41.22-22.911-58.354-38.918c-2.105-1.958-4.504-4.259-7.049-6.756c1.077-2.105,2.301-3.965,3.77-5.581
					c2.35-2.546,5.287-4.259,8.714-5.238c2.742-0.832,5.777-1.175,9.106-1.126c8.763,0.098,19.288,3.035,30.449,7.686
					c37.009,15.225,81.215,48.563,92.719,57.521c-7.784-6.315-15.861-14.392-23.841-23.792c3.77,3.574,7.539,7.147,11.308,10.721
					C1454.064,1265.011,1461.26,1271.815,1465.666,1280.431z"/>
			</g>
			<g style="opacity:0.6;">
				<path style="fill:#FFFFFF;" d="M1547.518,1175.13c-48.122-7-88.999-37.743-127.085-67.997
					c-8.322-6.658-16.645-13.316-23.988-21.001c-11.847-12.434-21.344-27.512-29.03-43.178c1.615-1.126,3.427-2.056,5.434-2.741
					c0.636-0.196,1.273-0.391,1.909-0.587c42.492-11.21,128.015,81.313,165.563,125.078
					C1542.72,1168.179,1545.119,1171.655,1547.518,1175.13z"/>
			</g>
			<g style="opacity:0.6;">
				<path style="fill:#FFFFFF;" d="M1805.017,1278.032c-1.86,0.098-3.672,0.098-5.532,0.049
					c-17.477-0.734-34.023-9.399-49.248-18.309c-29.813-17.526-58.207-37.254-86.404-57.276
					c-29.862-21.148-59.92-42.982-82.488-71.816c-12.875-16.498-23.008-34.904-33.142-53.262
					c-12.042-21.932-24.085-43.814-34.806-66.431c-2.056-4.357-4.161-8.763-6.266-13.267
					c33.729-10.966,77.054,77.348,154.793,149.702c21.393,19.924,41.954,38.135,60.605,54.045
					c18.113,21.148,39.604,39.751,60.801,57.962c6.364,5.483,12.679,10.917,19.043,16.35
					C1803.254,1276.515,1804.135,1277.298,1805.017,1278.032z"/>
			</g>
			<g style="opacity:0.2;">
				<path style="fill:#000072;" d="M1738.243,1388.522c-31.135,29.568-70.347,49.297-110.245,65.305
					c-22.96,9.252-46.654,17.476-71.326,19.386c-2.007,0.147-4.014,0.245-6.022,0.343c-7.245,0.245-14.49-0.049-21.736-0.686
					c-193.467-103.293-238.162-229.742-210.356-260.289c2.35-2.546,5.287-4.259,8.714-5.238c6.707,9.84,13.218,19.875,19.582,29.323
					c6.854,10.134,12.581,21.099,20.512,30.401c10.036,11.847,23.156,20.512,36.079,29.079c26.288,17.33,52.723,34.708,81.411,47.73
					c66.725,30.156,144.611,34.757,214.468,12.875c4.308-1.322,8.567-2.79,12.777-4.308c12.581-4.602,29.47-8.861,37.205,2.105
					C1756.748,1365.22,1747.691,1379.514,1738.243,1388.522z"/>
			</g>
			<g style="opacity:0.2;">
				<path style="fill:#000072;" d="M1628.047,1191.53c-16.791-7.196-36.764-1.958-53.752-8.567
					c-7.539-2.888-14.001-7.98-20.169-13.218c-7.245-6.07-14.197-12.434-20.952-19.141c-23.988-45.625-45.87-113.818-37.01-140.939
					c4.651,14.54,10.036,28.785,16.792,42.835C1539.245,1107.28,1578.848,1155.745,1628.047,1191.53z"/>
			</g>
			<g style="opacity:0.2;">
				<path style="fill:#000072;" d="M1540.615,1297.32c-2.741,3.427-7.833,3.427-12.19,2.986
					c-48.073-4.993-90.467-32.799-129.68-61.046c-10.966-7.881-21.98-16.057-32.701-24.575
					c37.009,15.225,81.215,48.563,92.719,57.521c-61.976-50.325-140.156-212.51-86.698-231.21c0.636-0.196,1.273-0.392,1.909-0.588
					c7.49,19.337,14.882,38.772,24.869,57.325c36.079,67.165,85.327,126.253,136.827,182.452
					C1540.077,1284.984,1544.678,1292.229,1540.615,1297.32z"/>
			</g>
			<g>
				<path style="fill:#000072;" d="M1803.867,1276.985c-25.457-9.642-47.803-23.489-69.06-38.749
					c-20.996-15.563-41.323-32.015-60.684-49.576c-9.673-8.829-19.136-17.715-28.582-26.94
					c-9.644-9.409-18.848-19.149-27.773-29.029c-17.859-19.742-34.651-40.093-50.933-60.178
					c-8.149-10.028-16.201-19.927-24.333-29.257c-8.03-9.094-16.631-18.208-24.141-23.21c-3.696-2.56-6.455-2.953-6.152-2.878
					c0.068,0.071,0.112-0.064,0.142,0.015c0,0,0.007-0.029,0-0.06c0.051-0.027,0.374-0.072,0.537-0.15
					c0.398-0.138,0.737-0.454,1.011-0.722c0.657-0.174,1.023-1.127,1.13-1.002c0.071-0.005,0.066-0.33,0.044-0.153
					c-0.02,0.161-0.068,0.305-0.146,0.438c-0.725,1.544-1.35,6.57-1.118,11.594c0.193,5.161,0.762,10.752,1.797,16.492
					c4.106,23.044,12.139,46.939,21.648,69.626c4.788,11.37,10.068,22.543,15.896,33.096c2.891,5.293,5.952,10.403,9.131,15.143
					c3.135,4.709,6.558,9.248,9.58,12.264l-29.175,26.03c-26.394-32.39-55.166-64.28-85.613-92.549
					c-15.288-13.948-31.245-27.397-47.664-37.315c-8.088-4.904-16.553-8.851-23.296-10.283c-3.149-0.482-5.986-0.737-7.046-0.167
					c-0.173,0.029-0.361,0.026-0.544,0.032c-0.107,0.11-0.22,0.198-0.339,0.266c-0.168,0.193-0.671,0.058-0.696,0.311
					c-0.1,0.179-0.247,0.261-0.481,0.284c-0.078,0.265-0.203,0.458-0.413,0.598c-1.519,1.736-3.428,9.432-2.546,18.087
					c0.601,8.667,2.593,18.159,5.264,27.593c5.474,18.958,13.53,37.968,22.847,56.254c9.326,18.315,20.034,36.066,31.914,52.65
					c11.86,16.38,25.166,32.328,39.429,43.336l-24.092,30.874c-16.736-13.107-34.934-25.915-53.125-37.149
					c-9.148-5.601-18.42-10.835-27.698-15.346c-9.204-4.479-18.711-8.232-26.851-9.915c-4.05-0.934-7.6-0.905-9.092-0.59
					c-0.767,0.131-0.815,0.314-0.681,0.126c0.054-0.049,0.32-0.043,0.271-0.27c-0.037,0.147-0.154,0.377-0.366,0.471
					c-0.688,0.958-1.597,3.772-1.853,7.271c-0.354,3.467-0.146,7.672,0.564,12.04c2.786,17.753,11.831,36.848,22.688,54.31
					c11.111,17.574,24.473,34.164,39.263,49.584c14.792,15.404,30.674,30.078,48.03,42.996c17.405,12.88,35.796,24.321,53.394,37.19
					c17.722,12.773,35.212,25.985,50.732,44.479l0.059,0.068c2.502,2.983,2.114,7.432-0.869,9.935
					c-1.479,1.241-3.337,1.769-5.12,1.625c-24.368-2.033-46.023-10.798-66.316-21.841c-20.41-10.945-38.901-25.156-56.68-40.111
					c-35.737-29.586-69.951-62.252-95.664-103.106c-12.568-20.564-23.826-42.567-28.24-69.282
					c-1.047-6.694-1.555-13.774-0.84-21.473c0.73-7.601,2.412-16.053,7.764-24.639c1.504-2.12,3.018-4.183,4.771-6.181
					c2.109-2.005,4.312-4.091,6.704-5.662c4.895-3.17,10.115-5.069,14.866-5.963c9.548-1.741,17.422-0.768,24.307,0.623
					c13.833,2.933,25.242,7.817,36.206,13.056c10.896,5.299,21.167,11.126,31.145,17.233c19.961,12.36,38.516,25.397,57.097,39.94
					l0.032,0.024c8.516,6.664,10.017,18.971,3.352,27.487c-6.665,8.516-18.958,10.027-27.473,3.362
					c-19.834-15.495-34.08-33.315-47.517-51.647c-13.193-18.431-24.783-37.672-35.005-57.728
					c-10.198-20.073-19.121-40.869-25.618-63.301c-3.162-11.274-5.764-22.941-6.68-35.77c-0.291-3.155-0.176-6.613-0.237-9.905
					c0.254-3.527,0.349-6.921,1.028-10.654c1.082-7.227,3.809-15.599,9.341-23.359c1.523-1.918,3.127-3.792,4.792-5.577
					c1.897-1.619,3.882-3.178,5.916-4.641c2.004-1.561,4.233-2.357,6.411-3.457l3.313-1.451l3.381-0.909
					c9.333-2.651,17.561-1.646,24.929-0.404c14.358,3.157,25.422,9.019,35.762,15.119c20.454,12.441,37.485,27.065,54.006,42.068
					c16.338,15.12,31.75,30.867,46.602,47.034c14.897,16.234,29.08,32.561,43.13,49.947c6.797,8.408,5.488,20.732-2.92,27.527
					c-7.876,6.365-19.189,5.62-26.174-1.412l-0.081-0.084c-6.094-6.177-10.344-12.127-14.409-18.135
					c-4.019-5.998-7.593-11.999-10.901-18.048c-6.667-12.086-12.434-24.329-17.683-36.783
					c-10.398-24.977-19.141-50.359-24.17-78.252c-1.24-6.985-2.07-14.28-2.341-22.032c-0.083-7.828-0.151-16.018,3.682-26.631
					c0.547-1.357,1.125-2.704,1.731-4.033c0.586-1.32,1.665-2.891,2.561-4.281c1.631-2.785,4.651-5.707,7.573-8.176
					c1.604-1.163,3.411-2.191,5.203-3.141c0.876-0.447,1.87-0.971,2.676-1.275l2.319-0.764c3.076-1.078,6.335-1.563,9.626-1.821
					c6.396-0.258,12.693,0.909,17.388,2.832c2.649,0.87,4.541,1.996,6.804,3.055c2.019,1.108,3.899,2.268,5.762,3.443
					c13.936,9.598,22.808,19.93,31.968,30.047c8.857,10.163,17.114,20.335,25.271,30.369c16.294,20.063,32.3,39.739,49.639,57.897
					c8.655,9.076,17.595,17.778,26.804,26.063l28.657,25.403c37.805,34.565,77.385,66.691,109.307,109.318l0.066,0.087
					c2.246,2.998,1.636,7.248-1.362,9.493C1808.42,1277.505,1805.955,1277.758,1803.867,1276.985z"/>
			</g>
			<g>
				<g>
					<path style="fill:#33CC66;" d="M2137.563,2468.794l-0.49,7.392l-54.388,788.26c-227.98,93.258-627.054,139.764-627.054,139.764
						c-132.813,57.913-169.088-95.069-169.088-95.069l-204.335-217.748l34.023-770.147l178.683,186.271l40.387,42.101
						c76.809-21.393,133.009,20.757,133.009,20.757L2137.563,2468.794z"/>
				</g>
				<g style="opacity:0.2;">
					<path style="fill:#000072;" d="M2137.073,2476.186l-54.388,788.26c-227.98,93.258-627.054,139.764-627.054,139.764
						c-132.813,57.913-169.088-95.069-169.088-95.069l-204.335-217.748l34.023-770.147l178.683,186.271
						c-0.979,25.26-5.434,50.178-14.099,74.313c-11.308,31.331-34.366,63.298-67.606,65.844
						c31.331,19.973,49.738,61.976,35.541,96.293c-14.197,34.317-65.011,49.542-91.593,23.596
						c8.078,33.191,27.855,63.347,55.073,84.005c-27.904,46.654-45.136,103.44-29.862,155.626
						c15.274,52.185,71.522,94.041,123.805,79.208c13.903,28.442,56.151,31.722,82.88,14.637
						c26.68-17.085,41.464-47.241,54.927-75.928c22.715-48.269,45.43-96.586,68.144-144.855
						c18.945-40.289,38.331-81.264,68.389-114.112c78.131-85.327,205.901-96.097,314.922-134.722
						c52.968-18.75,103.098-45.282,148.576-78.229C2068.292,2535.616,2103.099,2492.194,2137.073,2476.186z"/>
				</g>
				<g>
					<path style="fill:#000072;" d="M1399.233,3436.938c-18.11,0.002-35.181-3.972-51.099-11.926
						c-52.398-26.172-73.784-87.429-79.204-106.001l-201.016-214.216c-3.613-3.848-5.517-8.992-5.283-14.263l34.048-770.134
						c0.342-7.83,5.327-14.7,12.661-17.461c7.329-2.771,15.605-0.886,21.03,4.771l211.245,220.225
						c63.887-13.538,113.213,11.021,131.172,21.978l661.826-100.454c5.898-0.896,11.841,0.933,16.206,4.958
						c4.37,4.028,6.68,9.822,6.27,15.75l-54.883,795.647c-0.513,7.444-5.215,13.95-12.124,16.777
						c-220.264,90.103-590.215,136.06-629.365,140.737C1439.13,3432.399,1418.588,3436.938,1399.233,3436.938z M1102.118,3084.015
						l198.706,211.753c2.339,2.49,3.984,5.552,4.775,8.879c0.142,0.588,15.781,63.345,60.186,85.403
						c22.739,11.296,50.322,10.022,81.997-3.789c1.768-0.771,3.643-1.277,5.562-1.501c3.896-0.454,386.025-45.723,610.635-133.904
						l52.358-759.014l-645.083,97.913c-5.205,0.789-10.478-0.544-14.688-3.694c-1.938-1.421-49.99-35.964-116.016-17.566
						c-6.929,1.934-14.39-0.1-19.385-5.308l-187.383-195.352L1102.118,3084.015z"/>
				</g>
				<g>
					<path style="fill:#FFFFFF;" d="M1139.479,2345.489l88.227-39.013l201.834,188.282l584.904-91.253l80.617,68.573
						l-626.748,98.317c0,0-57.54-42.851-133.015-20.762L1139.479,2345.489z"/>
				</g>
				<g>
					<path style="fill:#000072;" d="M1468.315,2585.878c-3.311,0-6.558-1.062-9.248-3.066c-2.08-1.521-52.686-37.854-119.419-18.318
						c-5.552,1.619-11.528,0.024-15.522-4.143l-195.815-204.146c-3.496-3.643-4.995-8.762-4.019-13.718
						c0.977-4.954,4.312-9.119,8.931-11.16l88.223-39.011c5.674-2.51,12.29-1.389,16.821,2.837l196.328,183.145l577.461-90.09
						c4.468-0.706,8.989,0.586,12.417,3.503l80.62,68.572c4.614,3.921,6.514,10.168,4.873,15.994s-6.523,10.159-12.505,11.096
						l-626.748,98.318C1469.916,2585.817,1469.111,2585.878,1468.315,2585.878z M1379.267,2527.78
						c45.386,0,79.57,18.218,92.612,26.382l587.451-92.153l-49.512-42.112l-577.891,90.159c-4.722,0.735-9.478-0.735-12.949-3.975
						l-194.36-181.309l-58.667,25.942l174.214,181.626C1353.886,2529.113,1366.987,2527.78,1379.267,2527.78z"/>
				</g>
				<g>
					<path style="fill:#000072;" d="M1325.938,2599.645c2.854,54.517,3.503,108.988,3.718,163.45
						c-0.081,54.456-0.647,108.9-2.175,163.325c-0.676,27.214-1.35,54.429-2.388,81.635l-1.426,40.813l-1.77,40.806
						c-2.485,54.404-5.366,108.801-9.768,163.165c-0.19,2.372-2.271,4.139-4.641,3.947c-2.2-0.178-3.877-1.978-3.958-4.129
						c-2.1-54.501-2.681-108.97-2.864-163.431l-0.044-40.844l0.3-40.836c0.112-27.226,0.588-54.445,1.064-81.663
						c0.774-54.441,2.507-108.861,4.727-163.271c2.52-54.404,5.469-108.798,10.623-163.146c0.227-2.371,2.332-4.111,4.702-3.886
						C1324.194,2595.781,1325.83,2597.543,1325.938,2599.645z"/>
				</g>
				<g>
					<path style="fill:#000072;" d="M1459.893,2624.507c2.625,60.509,3.042,120.966,3.03,181.414
						c-0.313,60.441-1.108,120.871-2.866,181.279c-0.791,30.206-1.58,60.412-2.734,90.61l-1.597,45.3l-1.943,45.292
						c-2.715,60.386-5.825,120.763-10.457,181.106c-0.181,2.372-2.251,4.147-4.624,3.965c-2.209-0.169-3.901-1.998-3.975-4.161
						c-1.87-60.491-2.219-120.947-2.173-181.395l0.127-45.333l0.474-45.325c0.227-30.219,0.82-60.429,1.409-90.64
						c1.003-60.425,2.969-120.828,5.417-181.221c2.749-60.385,5.928-120.761,11.313-181.086c0.21-2.371,2.305-4.122,4.675-3.91
						C1458.149,2620.596,1459.802,2622.38,1459.893,2624.507z"/>
				</g>
				<g>
					<path style="fill:#000072;" d="M2057.415,2450.524l-552.71,74.728l548.899-98.907c6.655-1.199,13.02,3.223,14.219,9.877
						c1.199,6.654-3.223,13.019-9.875,14.219C2057.786,2450.469,2057.578,2450.502,2057.415,2450.524z"/>
				</g>
				<g>
					<path style="fill:#000072;" d="M1189.724,2314.575l173.379,190.209l-190.664-172.878c-5.012-4.545-5.393-12.294-0.847-17.306
						c4.546-5.013,12.295-5.393,17.307-0.847C1189.185,2314.011,1189.468,2314.296,1189.724,2314.575z"/>
				</g>
			</g>
			<g>
				<path style="fill:#9C9C9C;" d="M2654.078,2643.119c-26.778,90.027-83.711,183.627-154.156,235.959
					c-168.5,125.225-394.179,181.669-607.473,179.76c-213.293-1.909-93.062-130.61-93.062-130.61s-126.889,57.374-162.724,9.693
					c-34.855-46.458,60.85-117.931,65.941-121.651c-6.022,3.182-145.247,77.299-171.487,5.434
					c-3.133-8.567-3.28-18.211-0.734-28.638c5.728-24.085,25.603-52.234,55.073-80.529l0.049-0.049
					c67.361-64.718,185.096-130.071,300.677-148.772c167.423-27.072,287.116,61.437,407.446,36.373
					c67.704-14.148,100.895-35.345,116.952-51.206c0.049-0.049,0.098-0.098,0.147-0.147c8.126-8.029,11.847-14.686,13.414-18.309
					c0.832-1.86,1.077-2.938,1.077-2.938l1.419-1.419l119.399-117.784c1.371-0.098,2.692-0.196,4.014-0.245
					c56.885-2.888,91.447,21.638,108.189,61.339C2677.087,2513.93,2673.562,2577.57,2654.078,2643.119z"/>
			</g>
			<g style="opacity:0.6;">
				<path style="fill:#FFFFFF;" d="M2654.078,2643.119c5.532-43.324-0.147-88.166-15.029-129.337
					c-7.539-20.757-17.526-40.975-32.554-57.081c-9.203-9.889-20.12-18.015-30.988-26.093c-6.168-4.602-21.295-11.896-24.673-18.75
					c-0.636-1.322-0.881-2.594-0.783-3.818c56.885-2.888,91.447,21.638,108.189,61.339
					C2677.087,2513.93,2673.562,2577.57,2654.078,2643.119z"/>
			</g>
			<g style="opacity:0.2;">
				<path style="fill:#000072;" d="M2499.921,2879.079c-168.5,125.225-394.179,181.669-607.473,179.76
					c-169.822-1.518-128.211-83.418-104.174-116.756c-14.001,3.672-28.247,5.973-42.639,5.238
					c-39.114,10.917-88.656,17.624-108.972-9.399c-34.855-46.458,60.85-117.931,65.941-121.651
					c-0.979,0.538-5.581,2.986-12.728,6.364c-11.651,8.812-22.813,18.358-35.688,25.064c-21.589,11.26-48.122,13.071-70.885,5.238
					c-23.645-0.147-43.716-8.127-52.185-31.233c-3.867-10.574-3.182-22.813,1.469-36.128c-0.734-9.987,0.832-19.484,5.924-26.778
					c4.895-7,8.322-8.371,12.434-7.098c9.057-12.777,20.757-25.946,34.513-39.163c-10.281,23.938-11.162,41.268-5.532,53.507
					c8.567,3.133,17.33,4.602,27.855,3.133c37.597-5.14,69.417-29.079,102.02-48.611c141.037-84.446,326.133-89.831,471.87-13.707
					c-60.214-13.071-132.435-17.267-192.844-5.371c-60.459,11.945-112.245,31.873-167.801,59.857
					c-16.924,8.525-31.113,17.751-53.017,28.785c-26.75,15.211-31.184,24.575-39.114,38.086
					c8.714,11.015,21.197,16.938,34.268,21.344c30.694,10.378,115.532,8.763,169.039-12.728
					c87.53-35.198,154.206-62.955,274.829-64.032c-107.356,38.821-217.161,78.718-318.398,135.75
					c31.037,15.421,154.157,57.717,431.678-50.766c262.296-102.559,323.832-310.027,337.93-388.403
					C2702.983,2575.171,2621.67,2788.612,2499.921,2879.079z"/>
			</g>
			<g style="opacity:0.6;">
				<path style="fill:#FFFFFF;" d="M2293.628,2600.089c67.704-14.148,100.895-35.345,116.952-51.206
					c-11.651,13.511-25.456,24.918-37.45,32.114c-32.26,19.484-69.857,27.854-106.72,35.932
					c-33.142,7.245-66.61,16.457-100.503,14.931c-84.52-3.804-142.702-31.107-210.65-30.03
					c-34.268,0.538-93.887,13.62-126.931,22.579c-120.966,32.799-204.88,86.12-297.942,168.657
					c5.728-24.085,25.603-52.234,55.073-80.529l0.049-0.049c67.361-64.718,185.096-130.071,300.677-148.772
					C2053.606,2536.644,2173.299,2625.153,2293.628,2600.089z"/>
			</g>
			<g>
				<path style="fill:#000072;" d="M2431.592,2529.013c-0.466,2.747-0.94,4.229-1.558,6.19c-0.669,1.731-1.292,3.578-2.095,5.217
					c-1.55,3.382-3.455,6.441-5.383,9.55c-4.092,5.873-8.76,11.39-13.845,16.207c-10.249,9.596-21.628,17.846-33.655,24.267
					c-23.945,13.393-49.6,22.02-75.376,28.266c-27.131,6.224-55.391,7.524-82.336,5.131c-27.117-2.159-52.954-7.833-78.132-13.713
					c-25.222-5.915-49.751-12.54-74.216-17.859c-12.241-2.95-24.46-4.899-36.682-7.253l-18.325-2.646l-9.163-1.284l-9.163-0.814
					c-24.453-2.951-48.865-2.105-73.152-0.798l-18.105,2.233c-6.035,0.725-12.075,1.373-18.091,2.623
					c-6.028,1.048-12.046,2.183-18.027,3.596l-8.989,1.989l-8.933,2.312c-47.637,12.424-93.857,31.57-137.31,55.435
					c-21.699,11.993-42.69,25.255-62.646,39.752c-19.929,14.493-38.931,30.235-55.686,47.547
					c-8.425,8.601-16.287,17.618-23.005,27.013c-6.75,9.332-12.603,19.119-16.096,28.627c-3.574,9.544-4.136,18.241-2.158,24.193
					c1.56,3.634,3.208,7.132,5.603,9.437c2.393,2.376,5.168,4.382,8.848,5.903c3.789,1.389,8.179,2.454,13.091,2.907
					c4.971,0.327,10.186,0.459,15.693-0.124c10.928-0.876,22.417-3.441,33.813-6.685c11.423-3.246,22.827-7.424,34.092-12.019
					c11.13-4.611,22.654-9.914,32.805-15.3c9.561-5.073,21.423-1.434,26.497,8.127c4.568,8.607,2.073,19.08-5.447,24.785
					l-0.156,0.115c-19.482,14.81-39.128,33.088-52.737,52.213c-6.68,9.514-11.772,19.781-12.71,27.836
					c-0.481,4.017-0.049,7.135,1.125,9.993c0.422,0.69,0.586,1.447,1.067,2.155c0.525,0.684,0.923,1.458,1.423,2.146
					c0.593,0.604,1.135,1.237,1.646,1.913c0.679,0.54,1.34,1.09,1.96,1.697c5.532,4.347,15.532,7.018,26.79,7.297
					c11.272,0.353,23.521-1.1,35.754-3.52c12.263-2.412,24.622-5.798,36.851-9.761c12.109-3.937,24.656-8.619,35.83-13.509
					c9.934-4.346,21.509,0.182,25.854,10.114c3.198,7.308,1.592,15.504-3.435,21.057l-0.042,0.038
					c-1.763,1.941-4.207,4.897-6.228,7.505c-2.08,2.726-4.141,5.49-6.021,8.335c-3.818,5.657-7.207,11.495-9.905,17.326
					c-5.493,11.639-7.72,23.399-5.334,31.176c1.062,3.976,3.296,7.357,6.833,10.719l1.248,1.292l1.597,1.164
					c1.096,0.765,2.039,1.627,3.215,2.378c2.617,1.334,4.778,3.035,7.798,4.156c11.228,5.158,24.949,8.324,38.972,10.41
					c14.131,2.024,28.838,2.799,43.618,3.11c14.988,0.066,30.269-0.09,45.381-0.35c30.291-1.096,60.576-2.81,90.698-6.207
					c60.259-6.489,120.007-17.659,178.315-33.827c58.306-16.156,114.98-37.871,168.845-64.87
					c6.702-3.438,13.528-6.647,20.127-10.267l19.668-11.08c13.303-7.083,25.703-15.601,38.513-23.469
					c6.467-3.852,12.439-8.414,18.623-12.671l18.425-12.949c11.519-8.578,22.422-18.151,32.756-28.432
					c20.667-20.581,38.982-43.944,55.037-68.823c16.057-24.892,29.934-51.32,41.462-78.676
					c11.475-27.361,20.784-55.677,26.636-84.451c5.894-28.712,7.832-58.115,4.646-85.706c-3.154-27.508-11.455-53.245-28.584-70.581
					c-8.391-8.851-19.082-15.763-31.626-20.987c-12.571-5.197-26.809-8.281-41.902-11.034l-0.178-0.032
					c-3.638-0.663-6.05-4.15-5.386-7.788c0.464-2.544,2.317-4.489,4.629-5.201c15.618-4.773,32.563-6.533,49.946-4.284
					c17.297,2.273,35.156,9.202,49.668,21.094c7.261,5.859,13.789,12.704,19.102,20.238c5.366,7.487,10.01,15.418,13.511,23.68
					c7.117,16.477,10.891,33.641,12.478,50.505c3.093,33.843-1.274,66.532-7.852,98.097c-6.68,31.609-16.589,62.183-28.992,91.643
					c-12.415,29.452-27.302,57.82-44.666,84.738c-17.371,26.9-37.271,52.375-60.298,75.321
					c-11.516,11.456-23.826,22.284-37.036,32.12l-19.399,13.647c-6.506,4.484-12.82,9.275-19.6,13.331
					c-13.442,8.281-26.519,17.211-40.437,24.647l-20.623,11.609c-6.917,3.79-14.043,7.155-21.057,10.751
					c-56.35,28.246-115.381,50.822-175.896,67.598c-60.522,16.786-122.373,28.339-184.692,35.051
					c-31.152,3.507-62.463,5.289-93.779,6.414c-15.701,0.273-31.257,0.436-47.09,0.36c-16.025-0.34-32.161-1.162-48.56-3.503
					c-16.394-2.502-33.101-6.009-49.961-13.683c-4.199-1.658-8.396-4.439-12.539-6.782c-2.063-1.324-4.087-2.95-6.108-4.446
					l-3.008-2.325l-2.866-2.771c-7.62-7.164-14.285-17.1-17.258-28.072c-3.12-10.918-2.964-21.934-1.24-31.666
					c1.741-9.802,4.924-18.616,8.682-26.772c3.779-8.156,8.188-15.67,12.986-22.788c2.378-3.581,4.917-7.004,7.517-10.402
					c2.717-3.466,5.146-6.49,8.567-10.252l22.378,31.208c-13.55,5.927-26.338,10.641-39.878,15.075
					c-13.438,4.349-27.148,8.131-41.367,10.934c-14.216,2.776-28.926,4.698-44.648,4.237c-7.825-0.186-16.045-1.23-24.448-3.458
					c-8.372-2.258-17.153-5.955-25.061-12.066c-1.917-1.616-3.818-3.262-5.654-4.965c-1.702-1.871-3.369-3.786-4.988-5.729
					c-1.514-2.009-2.83-4.154-4.187-6.268c-1.318-2.14-2.324-4.584-3.418-6.902c-4.048-9.611-5.022-20.361-3.804-29.708
					c1.182-9.434,4.111-17.712,7.571-25.16c3.491-7.453,7.588-14.146,11.948-20.41c8.792-12.435,18.623-23.232,28.909-33.284
					c5.159-5.009,10.442-9.818,15.854-14.468c5.51-4.705,10.752-8.999,17.009-13.651l20.894,33.028
					c-12.432,6.592-24.177,11.938-36.646,17.131c-12.397,5.057-25.027,9.697-38.193,13.448c-13.169,3.731-26.736,6.853-41.306,8.067
					c-14.429,1.212-30.278,0.859-46.748-5.48c-8.184-3.296-16.189-8.561-22.688-15.345c-6.653-6.854-10.83-15.02-14.016-23.176
					c-0.667-2.272-1.292-4.567-1.873-6.869c-0.276-1.149-0.598-2.307-0.806-3.452l-0.339-3.406l-0.518-6.832
					c0.044-2.193,0.232-4.335,0.381-6.504c0.605-8.692,2.859-16.434,5.435-23.751c5.388-14.498,12.976-26.744,21.138-38.107
					c8.171-11.385,17.185-21.671,26.628-31.331c18.826-19.423,39.373-36.379,60.759-51.946
					c21.404-15.548,43.718-29.631,66.758-42.366c46.13-25.323,95.073-45.653,146.387-59.052l9.626-2.485l9.729-2.159
					c6.462-1.518,13-2.759,19.565-3.902c6.514-1.339,13.181-2.086,19.834-2.893l19.951-2.433
					c26.702-1.605,53.577-2.107,80.002,0.594l9.941,0.783l9.834,1.254l19.651,2.618c12.915,2.271,25.945,4.377,38.64,7.072
					c25.598,5.035,50.623,11.052,75.247,16.462c49.282,11.17,97.107,19.527,143.005,11.293c24.15-4.434,48.062-9.794,70.469-18.079
					l8.379-3.173c2.693-1.199,5.356-2.441,8.108-3.582c2.808-1.094,5.291-2.543,7.932-3.859c2.69-1.272,5.139-2.793,7.625-4.289
					c5.161-2.837,9.634-6.341,14.138-9.904c2.068-1.876,4.197-3.781,6.018-5.842c1.001-0.998,1.758-2.051,2.664-3.096
					c0.72-0.938,1.609-2.357,2.009-2.694l3-2.532c2.51-2.119,6.262-1.802,8.381,0.709
					C2431.44,2525.566,2431.865,2527.355,2431.592,2529.013z"/>
			</g>
			<g>
				<path style="fill:#000072;" d="M1691.011,2800.49c9.268-6.147,17.834-11.186,26.863-16.391c8.928-5.134,17.959-10,27.051-14.719
					c18.201-9.405,36.704-18.103,55.498-26.073c37.585-15.919,76.306-29.072,115.916-38.436c19.768-4.794,39.79-8.493,59.915-11.157
					c20.103-2.802,40.371-4.292,60.603-4.623c40.474-0.873,80.901,3.907,119.678,13.989c-39.497-6.892-79.641-8.293-119.116-4.214
					c-19.736,1.937-39.331,4.996-58.638,9.315c-19.321,4.18-38.411,9.344-57.151,15.543c-37.539,12.174-73.823,27.91-108.66,46.142
					c-17.417,9.123-34.468,18.909-51.082,29.29c-8.296,5.204-16.504,10.532-24.524,16.06c-7.92,5.45-16.165,11.311-23.164,16.837
					l-0.208,0.164c-8.499,6.707-20.828,5.256-27.534-3.243c-6.707-8.499-5.256-20.826,3.242-27.533
					C1690.117,2801.111,1690.576,2800.78,1691.011,2800.49z"/>
			</g>
			<g>
				<path style="fill:#000072;" d="M1781.448,2915.336c30.066-12.45,59.978-24.113,90.171-35.542
					c30.178-11.349,60.437-22.427,90.95-32.802c30.522-10.339,61.113-20.424,92.07-29.338c30.942-8.907,62.1-17.115,93.606-23.313
					c-30.718,9.365-60.708,20.638-90.398,32.563c-29.69,11.93-58.923,24.99-88.008,38.269
					c-29.075,13.314-57.844,27.309-86.465,41.538c-28.552,14.269-57.124,28.917-85,43.942l-0.117,0.063
					c-9.534,5.139-21.428,1.576-26.567-7.958c-5.139-9.534-1.575-21.428,7.959-26.567
					C1780.232,2915.877,1780.85,2915.586,1781.448,2915.336z"/>
			</g>
			<g>
				<g>
					<path style="fill:#785151;" d="M2822.481,2975.763c-3.035,52.283-91.691,112.007-197.628,156.115
						c-122.385,51.01-168.158,237.624-270.472,212.461c-19.68-4.847-34.611-18.456-45.674-38.282
						c-11.162-20.169-18.26-46.8-22.029-77.201c-7.931-64.13-1.126-145.051,12.973-217.405c2.546-13.022,5.238-25.456,8.126-37.303
						c18.505-76.369,43.569-128.896,68.242-162.724c25.163-34.562,49.884-49.591,66.627-50.667
						c4.259-0.245,7.979,0.392,11.063,1.811c12.141,5.63,16.351,19.826,15.666,38.331c-1.371,40.436-26.191,101.237-42.15,136.533
						c-0.734,1.615-1.469,3.182-2.105,4.699c-0.049,0.098-0.098,0.147-0.147,0.196c-4.112,8.958-7.441,15.812-9.35,19.679
						c0,0.098-0.049,0.147-0.098,0.245c-0.441,0.832-0.783,1.517-1.028,2.056c0.979-1.714,2.007-3.476,3.035-5.238
						c3.035-5.092,6.364-10.329,10.035-15.714c0.735-1.077,1.469-2.154,2.252-3.231c1.616-2.35,3.329-4.7,5.042-7.049
						c0.049-0.049,0.049-0.098,0.098-0.147c65.109-88.803,201.544-200.271,247.904-156.017c0.783,0.734,1.518,1.518,2.252,2.35
						c9.301,10.623,11.063,25.358,7.784,42.247c-0.734,3.819-1.713,7.735-2.986,11.749
						c-18.945,62.172-92.426,145.688-113.966,169.235c-2.545,2.741-4.357,4.7-5.287,5.678c3.329-3.427,7.098-6.902,11.21-10.329
						c0.098-0.049,0.147-0.098,0.196-0.147c4.406-3.671,9.252-7.294,14.49-10.917c0.098-0.049,0.196-0.147,0.294-0.196
						c67.361-46.408,193.418-83.516,219.951-35.737c0.245,0.343,0.441,0.734,0.636,1.077
						C2821.403,2959.657,2822.97,2967.588,2822.481,2975.763z"/>
				</g>
				<g style="opacity:0.6;">
					<path style="fill:#FFFFFF;" d="M2822.481,2975.763c-29.911-10.329-62.613-13.169-94.335-11.112
						c-38.87,0-79.11,12.777-116.315,22.666c-4.896,1.322-13.169,5.238-15.274-0.539c0.098-0.049,0.196-0.147,0.294-0.196
						c67.361-46.408,193.418-83.516,219.951-35.737c0.245,0.343,0.441,0.734,0.636,1.077
						C2821.403,2959.657,2822.97,2967.588,2822.481,2975.763z"/>
				</g>
				<g style="opacity:0.6;">
					<path style="fill:#FFFFFF;" d="M2698.06,2811.186c-0.734,3.819-1.713,7.735-2.986,11.749
						c-9.595-5.483-21.148-7.784-32.261-7.441c-16.106,0.441-31.575,5.875-46.458,11.994
						c-24.869,10.329-48.807,22.911-71.816,36.912c-20.463,12.385-40.191,25.897-59.529,39.947
						c-7.147,5.14-41.807,38.527-50.716,33.289c-1.615-0.979,0.832-6.609,5.728-14.882c0.049-0.049,0.049-0.098,0.098-0.147
						c65.109-88.803,201.544-200.271,247.904-156.017c0.783,0.734,1.518,1.518,2.252,2.35
						C2699.577,2779.562,2701.34,2794.297,2698.06,2811.186z"/>
				</g>
				<g style="opacity:0.6;">
					<path style="fill:#FFFFFF;" d="M2469.374,2800.899c-25.407,16.057-63.739,43.716-68.242,47.681
						c-24.428,21.638-46.066,46.507-64.032,73.774c-4.504,6.853-17.33,37.352-29.323,51.793
						c18.505-76.369,43.569-128.896,68.242-162.724c25.163-34.562,49.884-49.591,66.627-50.667
						c4.259-0.245,7.979,0.392,11.063,1.811C2465.849,2768.198,2470.059,2782.394,2469.374,2800.899z"/>
				</g>
				<g style="opacity:0.2;">
					<path style="fill:#000072;" d="M2817.438,2951.923c-0.196-0.343-0.392-0.734-0.636-1.077
						c-14.099,15.959-29.03,31.037-45.429,44.499c-39.604,32.555-86.159,54.29-133.057,75.683
						c-26.827,7.294-52.969,17.183-77.837,29.568c-11.798,5.826-27.121,11.896-36.814,3.035
						c-10.084-9.203-4.602-25.946,2.595-37.548c18.749-30.303,44.108-55.318,70.592-79.501c-5.336,3.672-10.28,7.392-14.784,11.113
						c-0.049,0.049-0.098,0.098-0.196,0.147c-4.112,3.427-7.882,6.903-11.21,10.329c0.93-0.979,2.741-2.937,5.287-5.678
						c22.911-25.065,104.762-118.126,116.952-180.984c-31.184,32.995-63.787,64.62-97.761,94.677
						c-34.855,30.89-72.991,61.095-118.518,71.131c-9.448,2.105-19.777,3.182-28.54-0.979c-15.127-7.147-19.239-25.75-20.512-42.982
						c-0.147-2.007-0.245-3.965-0.343-5.923c-0.538,1.664-1.272,3.231-2.105,4.699c-0.049,0.098-0.098,0.147-0.147,0.196
						c-8.469,14.833-29.764,21.54-44.793,12.875c-10.917-6.266-17.281-18.26-20.952-30.302c-5.973-19.778-5.973-40.583-2.203-60.752
						c3.329-18.064,14.392-35.296,18.994-52.724c-28.491,39.066-57.521,103.097-76.369,200.027
						c-14.099,72.354-20.903,153.275-12.973,217.405c0.685,5.679,1.518,11.26,2.448,16.694c0.636,3.525,1.322,7,2.007,10.378
						c4.112,19.19,9.889,36.226,17.575,50.129c11.064,19.826,25.995,33.436,45.674,38.282
						c102.314,25.162,148.086-161.451,270.472-212.461C2747.287,3080.868,2846.664,3009.101,2817.438,2951.923z M2467.031,3191.546
						c-11.357,21.001-24.624,40.926-39.555,59.577c-9.057,11.26-22.03,23.155-35.982,19.386
						c-9.742-2.595-16.106-12.581-17.428-22.568c-1.322-10.035,1.469-20.071,4.651-29.666c10.134-30.548,24.82-60.116,46.849-83.614
						c13.413-14.295,45.527-32.261,58.451-6.021C2492.438,3145.725,2474.962,3177.007,2467.031,3191.546z"/>
				</g>
				<g>
					<path style="fill:#000072;" d="M2373.73,3366.362c-7.681,0-15.664-0.962-24.019-3.02l0,0
						c-97.529-24.026-98.281-206.58-69.297-355.605c38.086-195.803,112.676-247.551,134.629-258.748
						c17.207-8.779,33.867-10.269,46.934-4.192c10.942,5.093,18.994,14.358,23.276,26.797c6.943,20.159,3.286,49.387-4.761,79.561
						c52.876-52.249,117.095-98.093,165.62-103.328c28.379-3.076,44.873,8.396,53.755,18.538
						c33.97,38.799-0.742,108.604-41.548,166.323c43.315-17.212,90.024-27.405,124.546-22.434
						c31.46,4.526,45.645,20.308,52.012,32.751c8.73,17.085,9.609,36.301,2.539,55.571
						c-25.796,70.286-151.963,129.275-205.015,151.377c-50.503,21.038-87.476,68.274-123.232,113.958
						C2468.075,3316.41,2428.969,3366.362,2373.73,3366.362z M2359.076,3325.314c41.772,10.291,72.505-25.815,119.253-85.544
						c37.051-47.336,79.048-100.989,139.014-125.969c99.077-41.277,169.316-90.598,183.306-128.716
						c3.35-9.131,3.145-16.836-0.645-24.25c-3.13-6.123-10.771-10.1-22.715-11.816c-54.834-7.913-156.533,35.098-192.842,73.076
						c-0.112,0.117-0.22,0.229-0.327,0.342c-7.446,7.822-19.829,8.137-27.666,0.693c-7.832-7.441-8.159-19.822-0.728-27.666
						c0.093-0.1,0.195-0.203,0.288-0.303c63.833-67.166,138.984-174.907,114.39-202.996c-1.655-1.892-6.04-6.931-20.093-5.4
						c-60.879,6.567-178.882,115.02-219.253,188.176c-5.161,9.358-16.875,12.854-26.323,7.834
						c-9.443-5.012-13.12-16.67-8.262-26.194c27.529-53.984,61.787-143.108,51.748-172.236c-1.128-3.276-2.275-3.811-2.769-4.041
						c-1.084-0.305-6.729-0.12-16.206,5.566c-36.001,21.597-83.906,93.186-110.386,229.341
						C2291.171,3157.568,2296.093,3309.799,2359.076,3325.314L2359.076,3325.314z"/>
				</g>
			</g>
			<g>
				<path style="fill:#9C9C9C;" d="M1240.183,2591.669c-2.252,31.575-18.847,48.122-31.526,56.248c-8.224,5.238-14.784,7-14.784,7
					c58.305,118.371-57.472,119.252-57.472,119.252c96.635,138.394-47.877,137.512-146.226,58.305
					c-73.187-58.941-76.956-145.443-74.117-185.781c0.245-3.133,0.49-6.021,0.784-8.567c0.93-8.665,1.958-13.707,1.958-13.707
					c-42.394-59.43-54.144-153.667-38.772-201.594c2.105-6.462,4.7-12.14,7.735-16.693c3.182-4.749,6.854-8.322,11.015-10.623
					c22.764-12.435,45.283-0.833,59.724,10.574c3.672,2.938,6.853,5.825,9.35,8.273c0,0,0,0.049,0.049,0.049
					c4.21,4.21,6.609,7.196,6.609,7.196s-6.413-60.605,14.001-95.803c2.79-4.798,6.07-9.106,9.987-12.728
					c4.063-3.867,8.812-6.902,14.294-8.959c13.218-4.896,30.303-6.168,53.213,6.119c22.666,12.19,50.962,37.695,86.649,86.159
					c12.287,16.595,25.407,35.932,39.457,58.304c0.196,0.343,0.392,0.636,0.636,0.979c0.049,0.098,0.098,0.196,0.147,0.294
					c25.407,40.681,38.723,73.284,44.352,99.328C1240.232,2569.199,1241.015,2581.242,1240.183,2591.669z"/>
			</g>
			<g style="opacity:0.6;">
				<path style="fill:#FFFFFF;" d="M1006.28,2482.452c-24.673-21.344-49.738-42.59-78.18-58.598
					c-12.826-7.245-26.288-13.315-40.338-17.721c3.182-4.749,6.854-8.322,11.015-10.623c22.764-12.435,45.283-0.833,59.724,10.574
					c3.672,2.938,6.853,5.825,9.35,8.273c0,0,0,0.049,0.049,0.049C980.677,2437.072,993.503,2459.786,1006.28,2482.452z"/>
			</g>
			<g style="opacity:0.6;">
				<path style="fill:#FFFFFF;" d="M1228.483,2611.202c-9.203-48.122-37.939-89.929-67.067-129.337
					c-40.143-54.29-82.928-107.602-136.044-149.31c-8.714-6.805-17.672-13.316-26.876-19.484c4.063-3.867,8.812-6.902,14.294-8.959
					c13.218-4.896,30.303-6.168,53.213,6.119c8.42,6.119,16.008,13.218,23.547,20.365c21.981,20.904,43.814,42.443,63.102,65.794
					c15.274,18.407,29.03,37.989,40.094,59.283c0.049,0.098,0.098,0.196,0.147,0.294c10.036,19.337,17.623,39.849,25.211,60.263
					C1229.511,2546.827,1240.918,2580.997,1228.483,2611.202z"/>
			</g>
			<g style="opacity:0.2;">
				<path style="fill:#000072;" d="M1240.869,2590.102c-0.196,0.539-0.441,1.028-0.685,1.567
					c-7.49,18.211-17.232,35.589-28.785,51.646c-1.077,1.42-2.154,2.937-2.741,4.602c-8.224,5.238-14.784,7-14.784,7
					c58.305,118.371-57.472,119.252-57.472,119.252c96.635,138.394-47.877,137.512-146.226,58.305
					c-73.187-58.941-76.956-145.443-74.117-185.781c0.147-0.147,0.294-0.294,0.441-0.441c12.19,51.794,53.801,91.398,97.37,121.945
					c18.015,12.679,37.352,24.624,58.99,28.883c21.638,4.21,46.262-0.636,60.801-17.232c-50.765-25.456-107.014-41.024-152.639-74.9
					c-24.966-18.505-45.674-41.758-64.179-66.822c0.93-8.665,1.958-13.707,1.958-13.707
					c-42.394-59.43-54.144-153.667-38.772-201.594c21.54,69.075,55.416,135.309,106.769,186.124
					c53.409,52.822,127.281,87.53,202.279,83.614c3.182-0.147,6.609-0.49,8.959-2.595c3.329-3.035,3.133-8.322,1.811-12.679
					c-5.581-18.554-24.526-29.177-41.709-38.233c-45.283-23.792-90.32-50.227-124.197-88.607
					c-36.177-40.975-56.983-92.621-75.438-144.366c9.889,7.833,16.008,15.518,16.008,15.518s-6.413-60.605,14.001-95.803
					c0.587,22.763,6.315,45.527,14.98,66.479c33.044,80.089,108.287,144.954,194.642,152.297
					c13.413,1.126,29.568,2.888,39.114,10.721c3.476,2.839,6.021,6.462,7.294,11.162
					C1246.645,2574.29,1243.953,2582.563,1240.869,2590.102z"/>
			</g>
			<g>
				<path style="fill:#000072;" d="M1120.922,2905.761c-44.185,0-100.83-24.055-143.032-58.044
					c-92.539-74.517-84.253-186.838-79.707-218.75c-39.932-61.172-51.704-149.297-39.644-201.699
					c5.605-24.37,15.986-40.84,30.854-48.948c23.188-12.649,46.216-8.452,65.112,1.582c2.549-35.027,13.516-80.046,51.475-94.141
					l0,0c57.109-21.201,121.528,29.163,202.71,158.538c46.831,74.626,61.792,134.756,44.463,178.713
					c-8.223,20.864-22.104,33.647-33.779,41.174c14.082,35.959,13.999,65.854-0.308,89.041
					c-12.427,20.144-32.944,30.271-50.42,35.359c30.854,55.215,19.453,84.902,2.798,100.452
					C1159.013,2900.646,1141.288,2905.761,1120.922,2905.761z M919.457,2409.828c-3.794,0-7.602,0.85-11.313,2.871
					c-3.198,1.748-8.12,8.911-11.44,23.35c-10.342,44.956,1.26,125.42,38.037,177.024c3.174,4.453,4.341,10.029,3.218,15.381
					c-0.972,4.753-23.027,118.281,64.492,188.76c58.716,47.288,125.752,58.64,142.266,43.198c7.827-7.307,6.143-31.348-24.37-75.056
					c-4.165-5.962-4.678-13.738-1.343-20.198c3.34-6.46,9.98-10.537,17.251-10.591c10.078-0.159,38.794-4.419,49.546-22.004
					c11.206-18.328,1.011-47.642-9.512-69.006c-2.598-5.264-2.691-11.416-0.264-16.758c2.432-5.344,7.129-9.316,12.803-10.82
					c0.576-0.176,19.849-6.072,28.149-27.986c8.276-21.855,7.803-64.382-41.46-142.878
					c-46.557-74.202-111.372-159.15-155.903-142.639l0,0c-26.118,9.697-28.555,69.6-25.645,97.087
					c0.918,8.657-3.989,16.88-12.046,20.181c-8.062,3.308-17.324,0.894-22.744-5.92
					C958.984,2433.583,939.501,2409.828,919.457,2409.828z M1012.797,2304.118h0.049H1012.797z"/>
			</g>
			<g>
				<path style="fill:#000072;" d="M1197.441,2676.611c-2.202,0-4.443-0.376-6.636-1.165
					c-182.119-65.605-235.098-246.926-237.266-254.614c-2.935-10.408,3.125-21.223,13.535-24.158
					c10.415-2.935,21.211,3.118,24.155,13.513c0.576,2.014,50.239,169.836,212.847,228.413
					c10.176,3.665,15.454,14.885,11.787,25.059C1212.988,2671.642,1205.463,2676.611,1197.441,2676.611z"/>
			</g>
			<g>
				<path style="fill:#000072;" d="M1142.206,2797.49c-1.899,0-3.828-0.278-5.742-0.864
					c-165.122-50.593-232.651-157.28-235.444-161.797c-5.688-9.197-2.842-21.265,6.353-26.953c9.199-5.681,21.24-2.849,26.934,6.316
					c0.918,1.453,63.726,99.058,213.633,144.988c10.337,3.169,16.152,14.119,12.983,24.46
					C1158.344,2792.067,1150.585,2797.49,1142.206,2797.49z"/>
			</g>
			<g>
				<g>
					<path style="fill:#4E3DA3;" d="M2797.612,1019.359c-19.924,170.85-122.581,335.972-122.581,335.972
						c-82.928-0.93-154.891-8.616-216.818-20.218c0,0,0,0-0.049,0c-231.406-43.178-322.608-140.646-322.608-140.646
						c-9.889-79.893,10.231-175.501,28.981-241.883c13.609-48.416,26.533-81.313,26.533-81.313
						C2549.855,808.61,2797.612,1019.359,2797.612,1019.359z"/>
				</g>
				<g style="opacity:0.2;">
					<path style="fill:#000072;" d="M2797.612,1019.359c-19.924,170.85-122.581,335.972-122.581,335.972
						c-82.928-0.93-154.891-8.616-216.818-20.218c50.765-6.413,100.356-22.372,145.1-47.241
						c22.568-12.532,44.597-28.002,58.011-50.08c13.413-22.078,16.351-52.136,1.371-73.187
						c-13.658-19.141-38.87-26.876-62.368-26.974c-23.547-0.098-46.604,6.168-69.907,9.154
						c-86.355,11.113-173.591-23.057-243.449-75.047c-45.821-34.17-85.474-75.732-122.435-119.154
						c13.609-48.416,26.533-81.313,26.533-81.313C2549.855,808.61,2797.612,1019.359,2797.612,1019.359z"/>
				</g>
				<g>
					<path style="fill:#000072;" d="M2675.014,1374.936c-0.068,0-0.142-0.002-0.215-0.002
						c-396.763-4.319-547.324-160.444-553.54-167.09c-2.827-3.022-4.624-6.863-5.132-10.972
						c-17.5-141.421,53.687-325.01,56.729-332.756c2.495-6.362,8.125-10.964,14.858-12.139
						c190.029-33.176,348.921,9.846,448.76,51.78c108.33,45.498,171.196,98.435,173.818,100.667
						c4.985,4.238,7.524,10.686,6.763,17.183c-20.2,173.21-121.123,337.19-125.41,344.084
						C2688.071,1371.442,2681.777,1374.936,2675.014,1374.936z M2154.233,1185.241c26.592,24.133,175.439,144.111,509.727,150.366
						c20.84-36.018,93.833-169.844,112.827-307.751c-44.497-33.772-267.197-187.644-571.289-139.146
						C2191.293,928.136,2142.948,1072.756,2154.233,1185.241z"/>
				</g>
				<g>
					<path style="fill:#4E3DA3;" d="M2620.33,617.445c-62.423-17.261-604.834,60.259-618.934,125.883
						c-10.92,50.815,338.092,332.818,446.726,354.713c77.564,15.626,590.131-85.844,600.311-125.562
						C3065.301,906.645,2704.227,640.641,2620.33,617.445z"/>
				</g>
				<g style="opacity:0.6;">
					<path style="fill:#FFFFFF;" d="M3034.795,989.252c-64.228-118.126-355.554-311.936-429.133-332.301
						c-19.141-5.287-75.292-1.762-148.38,7.735c1.077,1.419,1.665,2.986,1.86,4.602c1.517,13.511-27.855,27.904-65.55,32.114
						c-36.618,4.063-67.752-2.986-70.788-15.812c-112.595,20.022-235.078,47.73-321.678,76.711
						c-7.441-11.357-3.867-7.49-2.594-13.365c14.099-65.598,556.511-143.142,618.928-125.861
						c83.907,23.204,444.993,289.172,428.104,355.016C3044.243,983.181,3050.46,982.545,3034.795,989.252z"/>
				</g>
				<g>
					<path style="fill:#000072;" d="M2470.737,1119.194c-10.815,0-19.8-0.61-26.484-1.956
						c-100.713-20.3-388.779-244.351-449.658-337.253c-10.845-16.548-14.766-29.502-12.344-40.772
						c2.588-12.041,11.875-22.756,28.384-32.761c100.996-61.184,549.956-125.828,614.917-107.881l0,0
						c49.634,13.723,167.725,93.401,258.726,165.015c197.979,155.793,186.797,199.419,183.125,213.755
						c-3.364,13.113-13.589,26.995-100.649,52.503c-48.848,14.312-116.069,30.42-189.292,45.356
						C2690.693,1092.9,2541.65,1119.191,2470.737,1119.194z M2021.103,747.177c5.649,18.569,64.204,84.517,179.238,175.576
						c106.821,84.556,207.949,147.285,251.646,156.091c31.001,6.255,158.55-10.208,303.301-39.121
						c154.375-30.837,253.628-60.723,274.014-74.768c-3.389-18.23-50.762-77.82-172.925-173.484
						c-97.896-76.665-203.872-144.814-241.265-155.151l0,0c-23.77-6.577-156.738,4.39-309.526,30.632
						C2116.659,699.399,2033.241,732.05,2021.103,747.177z M2020.707,745.448"/>
				</g>
				<g style="opacity:0.2;">
					<path style="fill:#000072;" d="M3048.427,972.475c-10.183,39.702-522.782,141.184-600.325,125.568
						c-108.629-21.883-457.624-303.908-446.707-354.722c1.909-8.861,13.462-17.966,32.261-27.023
						c87.579,99.034,327.699,282.417,414.446,299.893c66.626,13.462,454.393-59.577,568.75-105.594
						C3039.469,937.082,3051.903,958.964,3048.427,972.475z"/>
				</g>
			</g>
			<g>
				<path style="fill:#9C9C9C;" d="M2915.542,1542.483c-9.987,4.161-20.414,7.833-31.232,10.917
					c29.274-6.56,78.571-15.176,102.265-5.434c6.413,2.594,10.917,6.511,12.679,12.189c0.539,1.811,0.832,3.916,0.734,6.364
					c-1.175,45.332-112.791,193.173-423.013,151.807c-12.532-1.713-25.407-3.672-38.576-5.972l-8.763-9.693l-28.541-31.526
					l-227.343-251.527c0,0,42.884,1.763,104.37-3.574c57.57-5.042,131.442-16.253,201.642-41.024
					c145.149-51.157,292.991-168.647,348.113-132.127c0.196,0.147,0.441,0.294,0.636,0.441c3.819,2.643,6.609,5.728,8.518,9.154
					c14.54,26.386-23.302,74.214-56.885,109.119c-19.973,20.708-38.429,36.862-43.52,41.317c2.595-1.909,8.518-6.266,16.84-12.092
					c45.038-31.575,161.059-106.622,207.223-76.319c4.651,3.035,8.42,7,11.26,11.651c0.294,0.44,0.538,0.881,0.734,1.37
					c26.141,46.458-32.114,159.934-149.31,211.678C2920.78,1540.329,2918.186,1541.455,2915.542,1542.483z"/>
			</g>
			<g style="opacity:0.6;">
				<path style="fill:#FFFFFF;" d="M3000.187,1565.388c-24.036,3.378-48.22,5.483-72.305,2.937
					c-14.295-1.518-28.247-4.7-42.101-8.322c-16.889-4.455-15.127-9.497,0.832-12.875c9.693-2.056,19.386-3.965,29.127-5.776
					c-9.986,4.161-20.414,7.832-31.232,10.917c29.274-6.56,78.571-15.176,102.265-5.434c6.413,2.594,10.917,6.511,12.679,12.19
					C2999.992,1560.836,3000.285,1562.941,3000.187,1565.388z"/>
			</g>
			<g style="opacity:0.6;">
				<path style="fill:#FFFFFF;" d="M3072.685,1327.525c-36.765,4.945-72.599,17.232-107.797,29.422
					c-37.597,13.022-75.341,28.834-113.721,39.163c0.294-1.664,1.077-3.476,2.301-5.287
					c45.038-31.575,161.059-106.622,207.223-76.319c4.651,3.035,8.42,7,11.26,11.651
					C3072.245,1326.595,3072.489,1327.035,3072.685,1327.525z"/>
			</g>
			<g style="opacity:0.6;">
				<path style="fill:#FFFFFF;" d="M2937.033,1252.478c-57.717,25.603-111.224,62.025-167.962,90.565
					c-58.598,29.519-121.406,50.521-185.879,62.612c-58.207,10.966-117.735,14.686-176.871,10.868
					c-6.511-0.44-18.162,0.245-28.198-0.49c57.57-5.042,131.442-16.253,201.642-41.024
					c145.149-51.157,292.991-168.647,348.113-132.127c0.196,0.147,0.441,0.294,0.636,0.441
					C2932.334,1245.967,2935.124,1249.051,2937.033,1252.478z"/>
			</g>
			<g style="opacity:0.2;">
				<path style="fill:#000072;" d="M2880.148,1361.597c-71.13,52.528-151.268,91.544-238.26,103.979
					c78.816-46.066,153.422-99.377,222.546-159.101c22.568-19.484,44.891-40.24,64.081-63.151
					C2961.461,1266.234,2918.088,1322.14,2880.148,1361.597z"/>
			</g>
			<g style="opacity:0.2;">
				<path style="fill:#000072;" d="M2921.809,1532.594c-10.868,2.595-21.785,4.944-32.701,7.147
					c-77.299,15.665-156.996,24.722-235.029,13.266c76.809-17.134,152.982-39.408,223.525-74.312
					c70.543-34.953,135.554-83.026,183.236-145.639c3.28-4.357,6.511-8.812,9.546-13.511
					C3098.386,1365.122,3040.131,1480.36,2921.809,1532.594z"/>
			</g>
			<g style="opacity:0.2;">
				<path style="fill:#000072;" d="M2575.413,1711.694c-15.923-4.657-31.749-9.901-47.332-15.636
					c-19.013-6.949-37.735-14.633-56.115-22.955c-14.704-6.667-22.843-11.051-34.231-22.573
					c16.974,13.27,40.181,14.235,61.818,13.981l2.007-0.005c92.227-1.179,184.979-7.206,274.457-29.428
					c74.556-18.51,147.025-48.764,208.978-93.724c6.42,2.577,10.934,6.53,12.712,12.204
					C3008.67,1588.823,2902.252,1755.31,2575.413,1711.694z"/>
			</g>
			<g>
				<path style="fill:#000072;" d="M2272.637,1405.387c36.841-7.354,73.35-12.088,109.612-16.967
					c36.284-4.707,72.312-10.336,107.91-17.495c35.63-7.145,70.601-16.45,104.253-29.65c33.77-13.203,66.821-29.259,99.792-46.005
					c33.01-16.751,65.781-34.498,99.98-51.028c17.173-8.188,34.561-16.234,53.345-22.832c9.299-3.385,19.148-6.215,29.512-8.39
					c10.369-2.101,21.584-3.506,34.136-1.949c3.145,0.461,6.382,1.194,9.543,1.876c3.24,1.102,6.497,2.14,9.656,3.586
					c6.24,3.171,12.537,7.053,17.776,13.479c1.27,1.617,2.664,3.094,3.691,4.918c1.035,1.824,2.017,3.694,2.932,5.583
					c1.028,1.874,1.462,3.834,2.061,5.795c0.491,1.937,1.194,4.003,1.348,5.861c0.386,3.737,0.818,7.7,0.417,11.028
					c-0.125,1.727-0.244,3.488-0.442,5.178l-0.933,4.711c-2.761,12.399-7.676,22.213-12.859,31.361
					c-5.254,9.093-11.035,17.371-17.046,25.295c-12.114,15.704-25.127,30.046-38.638,43.718
					c-13.596,13.723-27.297,26.567-42.246,39.348l-24.39-30.626c21.501-15.919,42.976-30.244,65.493-44.009
					c22.485-13.627,45.659-26.393,70.464-37.128c12.429-5.328,25.271-10.154,39.031-13.763c13.77-3.492,28.516-6.145,45.3-4.451
					c2.085,0.213,4.292,0.724,6.426,1.112c2.144,0.396,4.282,0.831,6.509,1.667c2.2,0.746,4.39,1.492,6.558,2.342
					c2.163,1.093,4.316,2.236,6.436,3.424c8.208,5.051,15.723,12.277,20.212,20.759c4.507,8.306,7.292,17.22,8.059,25.488
					c0.737,4.27,0.505,8.191,0.684,12.292c-0.168,3.939-0.398,7.88-0.857,11.701c-1.997,15.22-6.497,29.121-12.112,42.188
					c-5.657,13.053-12.495,25.3-20.269,36.763c-15.452,23.012-34.16,43.309-54.99,60.995
					c-20.862,17.634-43.931,32.609-68.489,44.505c-24.607,11.793-50.647,20.599-77.346,26.115l-0.115,0.023
					c-10.588,2.187-20.945-4.623-23.13-15.211c-2.107-10.194,4.185-20.188,14.102-22.869c14.541-3.898,28.423-6.982,42.898-9.694
					c14.404-2.646,29.001-4.788,44.197-5.81c7.625-0.467,15.398-0.656,23.579-0.165c8.198,0.575,16.77,1.533,26.606,5.203
					c4.966,2.101,10.317,4.588,15.525,9.78c5.093,4.856,9.436,12.394,10.374,19.788c1.221,7.471,0.3,12.607-0.562,17.642
					c-1.045,4.811-2.341,9.305-3.987,13.296c-6.357,16.321-15.51,29.221-25.449,41.288c-10.039,11.917-21.108,22.606-32.959,32.111
					c-23.738,18.95-49.99,33.972-77.434,45.352c-27.419,11.49-55.906,19.719-84.692,25.314
					c-28.804,5.674-57.903,8.322-86.917,10.269c-7.256,0.341-14.529,0.903-21.787,1.051l-21.78,0.127
					c-7.253-0.179-14.478-0.593-21.702-1.166l-10.83-0.828l-10.75-1.463c-7.161-0.983-14.321-1.967-21.411-3.373
					c-7.073-1.49-14.099-3.273-21.084-5.156c-3.484-0.995-6.978-1.92-10.42-3.102c-3.44-1.192-6.848-2.531-10.264-3.787
					c-6.799-2.698-13.56-5.46-20.132-9.013c-3.34-1.806-4.585-5.978-2.778-9.318c1.064-1.968,3.01-3.217,5.063-3.535
					c29.16-4.323,56.748-3.177,84.294-2.626c27.49,0.549,54.775,2.331,82.063,1.953c27.283-0.249,54.404-3.386,80.93-8.472
					c26.519-5.15,52.444-12.681,77.012-22.977c24.612-10.179,47.693-23.516,68.02-39.727c10.139-8.118,19.402-17.136,27.517-26.761
					c7.988-9.565,15.134-20.167,18.931-30.209c1.079-2.505,1.641-4.85,2.134-6.891c0.391-1.856,0.435-3.85,0.381-3.326
					c0.198,0.336,0.635,1.484,0.764,1.466c0.305,0.058-0.862-0.587-2.324-1.229c-3.384-1.297-8.94-2.264-14.766-2.592
					c-5.886-0.358-12.227-0.239-18.662,0.159c-25.825,1.829-53.362,7.391-79.116,14.155l-9.143-38.056
					c23.547-4.876,46.445-12.631,68.103-22.995c21.602-10.466,41.912-23.655,60.22-39.128
					c18.271-15.501,34.617-33.306,47.771-52.911c6.633-9.756,12.319-20.034,16.858-30.515c4.524-10.46,7.856-21.243,9.194-31.484
					c1.389-10.195,0.11-19.689-3.108-25.345c-3.257-5.55-7.927-8.462-16.66-9.702c-8.813-0.92-19.819,0.562-30.813,3.455
					c-11.062,2.892-22.322,7.067-33.452,11.851c-22.297,9.639-44.204,21.64-65.571,34.603
					c-21.262,12.975-42.493,27.177-62.224,41.788c-8.694,6.437-20.959,4.609-27.397-4.085c-6.125-8.272-4.766-19.779,2.869-26.422
					l0.139-0.119c26.921-23.294,53.557-49.307,74.932-76.84c5.251-6.918,10.129-13.97,14.197-21.016
					c4.045-6.982,7.288-14.197,8.518-20.035l0.471-2.136l0.1-1.787c0.266-1.32-0.103-1.997-0.032-2.903
					c-0.466-1.385-0.386-2.124-1.34-2.915c-0.547-0.941-2.4-2.055-4.368-3.163c-1.069-0.469-2.307-0.773-3.428-1.288
					c-1.411-0.197-2.717-0.55-4.17-0.797c-5.991-0.805-13.579-0.153-21.416,1.506c-7.859,1.667-15.994,3.923-24.199,6.928
					c-16.406,5.739-32.935,13.329-49.38,21.185c-32.93,15.906-65.737,33.653-99.197,50.641
					c-33.459,17.035-67.59,33.502-103.191,47.639c-35.713,14.122-72.576,25.682-109.836,34.094
					c-37.305,8.444-75.198,13.421-113.135,15.504c-18.965,1.141-38.005,0.878-56.982-0.308c-19.004-1.385-37.871-3.688-56.763-8.67
					c-3.564-0.941-5.693-4.594-4.753-8.161c0.671-2.545,2.725-4.359,5.142-4.846L2272.637,1405.387z"/>
			</g>
			<g>
				<g>
					<path style="fill:#000072;" d="M2765.82,1538.901c-0.439,0-0.874-0.015-1.318-0.044c-10.791-0.718-18.955-10.046-18.237-20.837
						c0.249-3.782,25.22-379.111,32.788-465.691c4.517-51.56-153.042-163.747-266.357-226.943
						c-9.448-5.269-12.832-17.195-7.563-26.641c5.259-9.443,17.192-12.837,26.636-7.563c2.939,1.638,72.798,40.73,142.954,91.328
						c100.327,72.363,147.217,129.026,143.345,173.232c-7.529,86.174-32.476,461.099-32.729,464.875
						C2784.653,1530.966,2776.039,1538.901,2765.82,1538.901z"/>
				</g>
				<g>
					<path style="fill:#FDCB38;" d="M2708.558,1556.418c3.573-28.675,31.901-48.743,63.263-44.832
						c31.371,3.911,53.906,30.32,50.333,58.987c-3.582,28.675-31.901,48.743-63.272,44.832
						C2727.51,1611.494,2704.985,1585.085,2708.558,1556.418z"/>
				</g>
				<g>
					<path style="fill:#000072;" d="M2766.655,1633.954c-3.301,0-6.641-0.205-10.01-0.625
						c-19.658-2.451-37.334-11.831-49.771-26.411c-12.837-15.046-18.604-33.774-16.24-52.734
						c2.363-18.962,12.554-35.703,28.691-47.141c15.64-11.084,35.083-15.847,54.731-13.381
						c19.658,2.451,37.334,11.829,49.775,26.409c12.842,15.049,18.608,33.777,16.245,52.737
						C2835.663,1608.171,2803.74,1633.952,2766.655,1633.954z M2763.974,1529.162c-8.677,0-16.958,2.537-23.76,7.358
						c-7.759,5.501-12.637,13.359-13.73,22.131l0,0c-1.094,8.772,1.704,17.585,7.876,24.819c6.567,7.7,16.069,12.676,26.758,14.009
						c21.431,2.654,40.771-10.405,43.11-29.143c1.094-8.767-1.704-17.58-7.876-24.814c-6.572-7.703-16.079-12.678-26.768-14.011
						C2767.704,1529.277,2765.829,1529.162,2763.974,1529.162z M2708.559,1556.418h0.049H2708.559z"/>
				</g>
			</g>
		</g>
	</g>
</g>
</svg>
